<svg xmlns="http://www.w3.org/2000/svg" viewBox="0 0 1560 1060" width="1560" height="1060" font-family="Segoe UI, system-ui, sans-serif">
<rect width="1560" height="1060" fill="#f8fafc"/>
<defs>
  <marker id="arrow" markerWidth="9" markerHeight="9" refX="8" refY="3" orient="auto">
    <path d="M0,0 L8,3 L0,6 z" fill="#94a3b8"/>
  </marker>
  <marker id="arrowCascade" markerWidth="9" markerHeight="9" refX="8" refY="3" orient="auto">
    <path d="M0,0 L8,3 L0,6 z" fill="#be123c"/>
  </marker>
</defs>
<text x="30" y="34" font-size="21" font-weight="700" fill="#0f172a">LMSFinal — схема базы данных</text>
<text x="30" y="57" font-size="12.5" fill="#64748b">24 таблицы · 31 связь.   Сплошная красная стрелка — каскадное удаление, серый пунктир — удаление запрещено.</text>
<path d="M361.0,210.0 Q361.0,187.0 361.0,164.0" fill="none" stroke="#94a3b8" stroke-width="1.4" stroke-dasharray="5 3" marker-end="url(#arrow)"/>
<path d="M268.0,260.5 Q242.0,355.5 216.0,450.5" fill="none" stroke="#94a3b8" stroke-width="1.4" stroke-dasharray="5 3" marker-end="url(#arrow)"/>
<text x="242.0" y="351.5" font-size="10" fill="#64748b" text-anchor="middle">автор</text>
<path d="M516.0,252.0 Q485.0,256.2 454.0,260.5" fill="none" stroke="#be123c" stroke-width="1.4" marker-end="url(#arrowCascade)"/>
<path d="M752.0,260.5 Q727.0,256.2 702.0,252.0" fill="none" stroke="#be123c" stroke-width="1.4" marker-end="url(#arrowCascade)"/>
<path d="M845.0,164.0 Q845.0,187.0 845.0,210.0" fill="none" stroke="#be123c" stroke-width="1.4" marker-end="url(#arrowCascade)"/>
<path d="M361.0,346.0 Q361.0,255.0 361.0,164.0" fill="none" stroke="#be123c" stroke-width="1.4" marker-end="url(#arrowCascade)"/>
<path d="M361.0,460.0 Q361.0,385.5 361.0,311.0" fill="none" stroke="#be123c" stroke-width="1.4" marker-end="url(#arrowCascade)"/>
<path d="M609.0,346.0 Q609.0,320.0 609.0,294.0" fill="none" stroke="#be123c" stroke-width="1.4" marker-end="url(#arrowCascade)"/>
<path d="M845.0,346.0 Q845.0,328.5 845.0,311.0" fill="none" stroke="#be123c" stroke-width="1.4" marker-end="url(#arrowCascade)"/>
<path d="M1010.0,252.0 Q974.0,256.2 938.0,260.5" fill="none" stroke="#be123c" stroke-width="1.4" marker-end="url(#arrowCascade)"/>
<text x="974.0" y="252.2" font-size="10" fill="#64748b" text-anchor="middle">1:1</text>
<path d="M1250.0,252.0 Q1223.0,252.0 1196.0,252.0" fill="none" stroke="#be123c" stroke-width="1.4" marker-end="url(#arrowCascade)"/>
<path d="M1343.0,164.0 Q1343.0,187.0 1343.0,210.0" fill="none" stroke="#be123c" stroke-width="1.4" marker-end="url(#arrowCascade)"/>
<path d="M268.0,650.5 Q242.0,550.5 216.0,450.5" fill="none" stroke="#94a3b8" stroke-width="1.4" stroke-dasharray="5 3" marker-end="url(#arrow)"/>
<path d="M361.0,600.0 Q361.0,455.5 361.0,311.0" fill="none" stroke="#94a3b8" stroke-width="1.4" stroke-dasharray="5 3" marker-end="url(#arrow)"/>
<path d="M516.0,650.5 Q366.0,550.5 216.0,450.5" fill="none" stroke="#94a3b8" stroke-width="1.4" stroke-dasharray="5 3" marker-end="url(#arrow)"/>
<path d="M609.0,600.0 Q727.0,455.5 845.0,311.0" fill="none" stroke="#94a3b8" stroke-width="1.4" stroke-dasharray="5 3" marker-end="url(#arrow)"/>
<path d="M361.0,740.0 Q242.0,620.5 123.0,501.0" fill="none" stroke="#94a3b8" stroke-width="1.4" stroke-dasharray="5 3" marker-end="url(#arrow)"/>
<path d="M361.0,740.0 Q361.0,525.5 361.0,311.0" fill="none" stroke="#94a3b8" stroke-width="1.4" stroke-dasharray="5 3" marker-end="url(#arrow)"/>
<path d="M361.0,860.0 Q242.0,680.5 123.0,501.0" fill="none" stroke="#94a3b8" stroke-width="1.4" stroke-dasharray="5 3" marker-end="url(#arrow)"/>
<path d="M361.0,860.0 Q361.0,585.5 361.0,311.0" fill="none" stroke="#94a3b8" stroke-width="1.4" stroke-dasharray="5 3" marker-end="url(#arrow)"/>
<path d="M516.0,790.5 Q366.0,620.5 216.0,450.5" fill="none" stroke="#94a3b8" stroke-width="1.4" stroke-dasharray="5 3" marker-end="url(#arrow)"/>
<path d="M609.0,740.0 Q485.0,525.5 361.0,311.0" fill="none" stroke="#94a3b8" stroke-width="1.4" stroke-dasharray="5 3" marker-end="url(#arrow)"/>
<path d="M516.0,912.0 Q366.0,681.2 216.0,450.5" fill="none" stroke="#be123c" stroke-width="1.4" marker-end="url(#arrowCascade)"/>
<path d="M1010.0,650.5 Q613.0,550.5 216.0,450.5" fill="none" stroke="#94a3b8" stroke-width="1.4" stroke-dasharray="5 3" marker-end="url(#arrow)"/>
<path d="M1103.0,600.0 Q1103.0,447.0 1103.0,294.0" fill="none" stroke="#94a3b8" stroke-width="1.4" stroke-dasharray="5 3" marker-end="url(#arrow)"/>
<path d="M1103.0,740.0 Q1103.0,720.5 1103.0,701.0" fill="none" stroke="#be123c" stroke-width="1.4" marker-end="url(#arrowCascade)"/>
<path d="M1103.0,740.0 Q1223.0,517.0 1343.0,294.0" fill="none" stroke="#94a3b8" stroke-width="1.4" stroke-dasharray="5 3" marker-end="url(#arrow)"/>
<path d="M1103.0,870.0 Q1103.0,847.0 1103.0,824.0" fill="none" stroke="#be123c" stroke-width="1.4" marker-end="url(#arrowCascade)"/>
<path d="M1103.0,870.0 Q1223.0,517.0 1343.0,164.0" fill="none" stroke="#94a3b8" stroke-width="1.4" stroke-dasharray="5 3" marker-end="url(#arrow)"/>
<path d="M123.0,632.0 Q123.0,566.5 123.0,501.0" fill="none" stroke="#be123c" stroke-width="1.4" marker-end="url(#arrowCascade)"/>
<path d="M123.0,632.0 Q123.0,621.0 123.0,610.0" fill="none" stroke="#be123c" stroke-width="1.4" marker-end="url(#arrowCascade)"/>
<rect x="30" y="400" width="186" height="101" rx="7" fill="#eef2ff" stroke="#4338ca" stroke-width="1.2"/>
<rect x="30" y="400" width="186" height="26" rx="7" fill="#4338ca"/>
<rect x="30" y="418" width="186" height="8" fill="#4338ca"/>
<text x="39" y="417" font-size="11.5" font-weight="700" fill="#ffffff">AspNetUsers</text>
<text x="39" y="438" font-size="10.5" fill="#334155">Id (PK)</text>
<text x="39" y="455" font-size="10.5" fill="#334155">Email · UserName</text>
<text x="39" y="472" font-size="10.5" fill="#334155">FirstName · LastName</text>
<text x="39" y="489" font-size="10.5" fill="#334155">Bio · AvatarUrl</text>
<rect x="30" y="526" width="186" height="84" rx="7" fill="#eef2ff" stroke="#4338ca" stroke-width="1.2"/>
<rect x="30" y="526" width="186" height="26" rx="7" fill="#4338ca"/>
<rect x="30" y="544" width="186" height="8" fill="#4338ca"/>
<text x="39" y="543" font-size="11.5" font-weight="700" fill="#ffffff">AspNetRoles</text>
<text x="39" y="564" font-size="10.5" fill="#334155">Id (PK)</text>
<text x="39" y="581" font-size="10.5" fill="#334155">Name</text>
<text x="39" y="598" font-size="10.5" fill="#334155">Admin / Instructor / Student</text>
<rect x="30" y="632" width="186" height="67" rx="7" fill="#eef2ff" stroke="#4338ca" stroke-width="1.2"/>
<rect x="30" y="632" width="186" height="26" rx="7" fill="#4338ca"/>
<rect x="30" y="650" width="186" height="8" fill="#4338ca"/>
<text x="39" y="649" font-size="11.5" font-weight="700" fill="#ffffff">AspNetUserRoles</text>
<text x="39" y="670" font-size="10.5" fill="#334155">UserId (FK)</text>
<text x="39" y="687" font-size="10.5" fill="#334155">RoleId (FK)</text>
<rect x="268" y="80" width="186" height="84" rx="7" fill="#ecfdf5" stroke="#0f766e" stroke-width="1.2"/>
<rect x="268" y="80" width="186" height="26" rx="7" fill="#0f766e"/>
<rect x="268" y="98" width="186" height="8" fill="#0f766e"/>
<text x="277" y="97" font-size="11.5" font-weight="700" fill="#ffffff">Categories</text>
<text x="277" y="118" font-size="10.5" fill="#334155">Id (PK)</text>
<text x="277" y="135" font-size="10.5" fill="#334155">Slug (unique)</text>
<text x="277" y="152" font-size="10.5" fill="#334155">IconUrl</text>
<rect x="268" y="210" width="186" height="101" rx="7" fill="#ecfdf5" stroke="#0f766e" stroke-width="1.2"/>
<rect x="268" y="210" width="186" height="26" rx="7" fill="#0f766e"/>
<rect x="268" y="228" width="186" height="8" fill="#0f766e"/>
<text x="277" y="227" font-size="11.5" font-weight="700" fill="#ffffff">Courses</text>
<text x="277" y="248" font-size="10.5" fill="#334155">Id (PK)</text>
<text x="277" y="265" font-size="10.5" fill="#334155">InstructorId (FK)</text>
<text x="277" y="282" font-size="10.5" fill="#334155">CategoryId (FK)</text>
<text x="277" y="299" font-size="10.5" fill="#334155">Price · Level · Status</text>
<rect x="516" y="210" width="186" height="84" rx="7" fill="#ecfdf5" stroke="#0f766e" stroke-width="1.2"/>
<rect x="516" y="210" width="186" height="26" rx="7" fill="#0f766e"/>
<rect x="516" y="228" width="186" height="8" fill="#0f766e"/>
<text x="525" y="227" font-size="11.5" font-weight="700" fill="#ffffff">Modules</text>
<text x="525" y="248" font-size="10.5" fill="#334155">Id (PK)</text>
<text x="525" y="265" font-size="10.5" fill="#334155">CourseId (FK)</text>
<text x="525" y="282" font-size="10.5" fill="#334155">OrderIndex</text>
<rect x="752" y="210" width="186" height="101" rx="7" fill="#ecfdf5" stroke="#0f766e" stroke-width="1.2"/>
<rect x="752" y="210" width="186" height="26" rx="7" fill="#0f766e"/>
<rect x="752" y="228" width="186" height="8" fill="#0f766e"/>
<text x="761" y="227" font-size="11.5" font-weight="700" fill="#ffffff">Lessons</text>
<text x="761" y="248" font-size="10.5" fill="#334155">Id (PK)</text>
<text x="761" y="265" font-size="10.5" fill="#334155">ModuleId (FK)</text>
<text x="761" y="282" font-size="10.5" fill="#334155">VideoUrl · Duration</text>
<text x="761" y="299" font-size="10.5" fill="#334155">OrderIndex · IsPublished</text>
<rect x="752" y="80" width="186" height="84" rx="7" fill="#ecfdf5" stroke="#0f766e" stroke-width="1.2"/>
<rect x="752" y="80" width="186" height="26" rx="7" fill="#0f766e"/>
<rect x="752" y="98" width="186" height="8" fill="#0f766e"/>
<text x="761" y="97" font-size="11.5" font-weight="700" fill="#ffffff">LessonResources</text>
<text x="761" y="118" font-size="10.5" fill="#334155">Id (PK)</text>
<text x="761" y="135" font-size="10.5" fill="#334155">LessonId (FK)</text>
<text x="761" y="152" font-size="10.5" fill="#334155">FileName · FileUrl</text>
<rect x="268" y="346" width="186" height="84" rx="7" fill="#fefce8" stroke="#a16207" stroke-width="1.2"/>
<rect x="268" y="346" width="186" height="26" rx="7" fill="#a16207"/>
<rect x="268" y="364" width="186" height="8" fill="#a16207"/>
<text x="277" y="363" font-size="11.5" font-weight="700" fill="#ffffff">CategoryTranslations</text>
<text x="277" y="384" font-size="10.5" fill="#334155">CategoryId (FK)</text>
<text x="277" y="401" font-size="10.5" fill="#334155">LanguageCode</text>
<text x="277" y="418" font-size="10.5" fill="#334155">Name · Description</text>
<rect x="268" y="460" width="186" height="84" rx="7" fill="#fefce8" stroke="#a16207" stroke-width="1.2"/>
<rect x="268" y="460" width="186" height="26" rx="7" fill="#a16207"/>
<rect x="268" y="478" width="186" height="8" fill="#a16207"/>
<text x="277" y="477" font-size="11.5" font-weight="700" fill="#ffffff">CourseTranslations</text>
<text x="277" y="498" font-size="10.5" fill="#334155">CourseId (FK)</text>
<text x="277" y="515" font-size="10.5" fill="#334155">LanguageCode</text>
<text x="277" y="532" font-size="10.5" fill="#334155">Title · Description</text>
<rect x="516" y="346" width="186" height="84" rx="7" fill="#fefce8" stroke="#a16207" stroke-width="1.2"/>
<rect x="516" y="346" width="186" height="26" rx="7" fill="#a16207"/>
<rect x="516" y="364" width="186" height="8" fill="#a16207"/>
<text x="525" y="363" font-size="11.5" font-weight="700" fill="#ffffff">ModuleTranslations</text>
<text x="525" y="384" font-size="10.5" fill="#334155">ModuleId (FK)</text>
<text x="525" y="401" font-size="10.5" fill="#334155">LanguageCode</text>
<text x="525" y="418" font-size="10.5" fill="#334155">Title · Description</text>
<rect x="752" y="346" width="186" height="84" rx="7" fill="#fefce8" stroke="#a16207" stroke-width="1.2"/>
<rect x="752" y="346" width="186" height="26" rx="7" fill="#a16207"/>
<rect x="752" y="364" width="186" height="8" fill="#a16207"/>
<text x="761" y="363" font-size="11.5" font-weight="700" fill="#ffffff">LessonTranslations</text>
<text x="761" y="384" font-size="10.5" fill="#334155">LessonId (FK)</text>
<text x="761" y="401" font-size="10.5" fill="#334155">LanguageCode</text>
<text x="761" y="418" font-size="10.5" fill="#334155">Title · Content</text>
<rect x="268" y="600" width="186" height="101" rx="7" fill="#faf5ff" stroke="#9333ea" stroke-width="1.2"/>
<rect x="268" y="600" width="186" height="26" rx="7" fill="#9333ea"/>
<rect x="268" y="618" width="186" height="8" fill="#9333ea"/>
<text x="277" y="617" font-size="11.5" font-weight="700" fill="#ffffff">Enrollments</text>
<text x="277" y="638" font-size="10.5" fill="#334155">Id (PK)</text>
<text x="277" y="655" font-size="10.5" fill="#334155">StudentId (FK)</text>
<text x="277" y="672" font-size="10.5" fill="#334155">CourseId (FK)</text>
<text x="277" y="689" font-size="10.5" fill="#334155">Progress% · Status</text>
<rect x="516" y="600" width="186" height="101" rx="7" fill="#faf5ff" stroke="#9333ea" stroke-width="1.2"/>
<rect x="516" y="600" width="186" height="26" rx="7" fill="#9333ea"/>
<rect x="516" y="618" width="186" height="8" fill="#9333ea"/>
<text x="525" y="617" font-size="11.5" font-weight="700" fill="#ffffff">LessonProgresses</text>
<text x="525" y="638" font-size="10.5" fill="#334155">Id (PK)</text>
<text x="525" y="655" font-size="10.5" fill="#334155">StudentId (FK)</text>
<text x="525" y="672" font-size="10.5" fill="#334155">LessonId (FK)</text>
<text x="525" y="689" font-size="10.5" fill="#334155">IsCompleted · LastPosition</text>
<rect x="268" y="740" width="186" height="84" rx="7" fill="#faf5ff" stroke="#9333ea" stroke-width="1.2"/>
<rect x="268" y="740" width="186" height="26" rx="7" fill="#9333ea"/>
<rect x="268" y="758" width="186" height="8" fill="#9333ea"/>
<text x="277" y="757" font-size="11.5" font-weight="700" fill="#ffffff">Wishlists</text>
<text x="277" y="778" font-size="10.5" fill="#334155">Id (PK)</text>
<text x="277" y="795" font-size="10.5" fill="#334155">StudentId (FK)</text>
<text x="277" y="812" font-size="10.5" fill="#334155">CourseId (FK)</text>
<rect x="268" y="860" width="186" height="101" rx="7" fill="#faf5ff" stroke="#9333ea" stroke-width="1.2"/>
<rect x="268" y="860" width="186" height="26" rx="7" fill="#9333ea"/>
<rect x="268" y="878" width="186" height="8" fill="#9333ea"/>
<text x="277" y="877" font-size="11.5" font-weight="700" fill="#ffffff">CourseReviews</text>
<text x="277" y="898" font-size="10.5" fill="#334155">Id (PK)</text>
<text x="277" y="915" font-size="10.5" fill="#334155">StudentId (FK)</text>
<text x="277" y="932" font-size="10.5" fill="#334155">CourseId (FK)</text>
<text x="277" y="949" font-size="10.5" fill="#334155">Rating · Comment</text>
<rect x="516" y="740" width="186" height="101" rx="7" fill="#faf5ff" stroke="#9333ea" stroke-width="1.2"/>
<rect x="516" y="740" width="186" height="26" rx="7" fill="#9333ea"/>
<rect x="516" y="758" width="186" height="8" fill="#9333ea"/>
<text x="525" y="757" font-size="11.5" font-weight="700" fill="#ffffff">Certificates</text>
<text x="525" y="778" font-size="10.5" fill="#334155">Id (PK)</text>
<text x="525" y="795" font-size="10.5" fill="#334155">StudentId (FK)</text>
<text x="525" y="812" font-size="10.5" fill="#334155">CourseId (FK)</text>
<text x="525" y="829" font-size="10.5" fill="#334155">CertificateNumber</text>
<rect x="516" y="870" width="186" height="84" rx="7" fill="#faf5ff" stroke="#9333ea" stroke-width="1.2"/>
<rect x="516" y="870" width="186" height="26" rx="7" fill="#9333ea"/>
<rect x="516" y="888" width="186" height="8" fill="#9333ea"/>
<text x="525" y="887" font-size="11.5" font-weight="700" fill="#ffffff">Notifications</text>
<text x="525" y="908" font-size="10.5" fill="#334155">Id (PK)</text>
<text x="525" y="925" font-size="10.5" fill="#334155">UserId (FK)</text>
<text x="525" y="942" font-size="10.5" fill="#334155">Type · IsRead</text>
<rect x="1010" y="210" width="186" height="84" rx="7" fill="#fff1f2" stroke="#be123c" stroke-width="1.2"/>
<rect x="1010" y="210" width="186" height="26" rx="7" fill="#be123c"/>
<rect x="1010" y="228" width="186" height="8" fill="#be123c"/>
<text x="1019" y="227" font-size="11.5" font-weight="700" fill="#ffffff">Quizzes</text>
<text x="1019" y="248" font-size="10.5" fill="#334155">Id (PK)</text>
<text x="1019" y="265" font-size="10.5" fill="#334155">LessonId (FK, unique)</text>
<text x="1019" y="282" font-size="10.5" fill="#334155">PassingScore · TimeLimit</text>
<rect x="1250" y="210" width="186" height="84" rx="7" fill="#fff1f2" stroke="#be123c" stroke-width="1.2"/>
<rect x="1250" y="210" width="186" height="26" rx="7" fill="#be123c"/>
<rect x="1250" y="228" width="186" height="8" fill="#be123c"/>
<text x="1259" y="227" font-size="11.5" font-weight="700" fill="#ffffff">Questions</text>
<text x="1259" y="248" font-size="10.5" fill="#334155">Id (PK)</text>
<text x="1259" y="265" font-size="10.5" fill="#334155">QuizId (FK)</text>
<text x="1259" y="282" font-size="10.5" fill="#334155">Type · Points</text>
<rect x="1250" y="80" width="186" height="84" rx="7" fill="#fff1f2" stroke="#be123c" stroke-width="1.2"/>
<rect x="1250" y="80" width="186" height="26" rx="7" fill="#be123c"/>
<rect x="1250" y="98" width="186" height="8" fill="#be123c"/>
<text x="1259" y="97" font-size="11.5" font-weight="700" fill="#ffffff">Answers</text>
<text x="1259" y="118" font-size="10.5" fill="#334155">Id (PK)</text>
<text x="1259" y="135" font-size="10.5" fill="#334155">QuestionId (FK)</text>
<text x="1259" y="152" font-size="10.5" fill="#334155">IsCorrect</text>
<rect x="1010" y="600" width="186" height="101" rx="7" fill="#fff1f2" stroke="#be123c" stroke-width="1.2"/>
<rect x="1010" y="600" width="186" height="26" rx="7" fill="#be123c"/>
<rect x="1010" y="618" width="186" height="8" fill="#be123c"/>
<text x="1019" y="617" font-size="11.5" font-weight="700" fill="#ffffff">QuizAttempts</text>
<text x="1019" y="638" font-size="10.5" fill="#334155">Id (PK)</text>
<text x="1019" y="655" font-size="10.5" fill="#334155">StudentId (FK)</text>
<text x="1019" y="672" font-size="10.5" fill="#334155">QuizId (FK)</text>
<text x="1019" y="689" font-size="10.5" fill="#334155">Score · Percentage · Passed</text>
<rect x="1010" y="740" width="186" height="84" rx="7" fill="#fff1f2" stroke="#be123c" stroke-width="1.2"/>
<rect x="1010" y="740" width="186" height="26" rx="7" fill="#be123c"/>
<rect x="1010" y="758" width="186" height="8" fill="#be123c"/>
<text x="1019" y="757" font-size="11.5" font-weight="700" fill="#ffffff">QuizAttemptAnswers</text>
<text x="1019" y="778" font-size="10.5" fill="#334155">Id (PK)</text>
<text x="1019" y="795" font-size="10.5" fill="#334155">QuizAttemptId (FK)</text>
<text x="1019" y="812" font-size="10.5" fill="#334155">QuestionId (FK)</text>
<rect x="1010" y="870" width="186" height="67" rx="7" fill="#fff1f2" stroke="#be123c" stroke-width="1.2"/>
<rect x="1010" y="870" width="186" height="26" rx="7" fill="#be123c"/>
<rect x="1010" y="888" width="186" height="8" fill="#be123c"/>
<text x="1019" y="887" font-size="11.5" font-weight="700" fill="#ffffff">QuizAttemptAnswerSelections</text>
<text x="1019" y="908" font-size="10.5" fill="#334155">QuizAttemptAnswerId (FK)</text>
<text x="1019" y="925" font-size="10.5" fill="#334155">AnswerId (FK)</text>
<rect x="30" y="930" width="200" height="104" rx="7" fill="#ffffff" stroke="#cbd5e1"/>
<text x="40" y="949" font-size="11.5" font-weight="700" fill="#0f172a">Группы таблиц</text>
<rect x="40" y="956" width="10" height="10" rx="2" fill="#4338ca"/>
<text x="56" y="964" font-size="10" fill="#334155">Пользователи</text>
<rect x="40" y="970" width="10" height="10" rx="2" fill="#0f766e"/>
<text x="56" y="978" font-size="10" fill="#334155">Каталог курсов</text>
<rect x="40" y="984" width="10" height="10" rx="2" fill="#a16207"/>
<text x="56" y="992" font-size="10" fill="#334155">Переводы (AZ / EN / RU)</text>
<rect x="40" y="998" width="10" height="10" rx="2" fill="#9333ea"/>
<text x="56" y="1006" font-size="10" fill="#334155">Обучение и достижения</text>
<rect x="40" y="1012" width="10" height="10" rx="2" fill="#be123c"/>
<text x="56" y="1020" font-size="10" fill="#334155">Тесты и попытки</text>
</svg>